<?xml version="1.0" encoding="UTF-8"?>
<svg id="Layer_1" data-name="Layer 1" xmlns="http://www.w3.org/2000/svg" xmlns:xlink="http://www.w3.org/1999/xlink" viewBox="0 0 24 24">
  <defs>
    <style>
      .cls-1 {
        fill: url(#linear-gradient);
        stroke-width: 0px;
      }
    </style>
    <linearGradient id="linear-gradient" x1="0" y1="12" x2="24" y2="12" gradientUnits="userSpaceOnUse">
      <stop offset="1" stop-color="#18e"/>
      <stop offset="1" stop-color="#231f20"/>
    </linearGradient>
  </defs>
  <path class="cls-1" d="m19,0H5C2.24,0,0,2.24,0,5v14c0,2.76,2.24,5,5,5h14c2.76,0,5-2.24,5-5V5c0-2.76-2.24-5-5-5Zm-11,19h-3v-11h3v11Zm-1.5-12.27c-.97,0-1.75-.79-1.75-1.76s.78-1.76,1.75-1.76,1.75.79,1.75,1.76-.78,1.76-1.75,1.76Zm13.5,12.27h-3v-5.6c0-3.37-4-3.11-4,0v5.6h-3v-11h3v1.77c1.4-2.59,7-2.78,7,2.48v6.76Z"/>
</svg>